<?xml version="1.0" encoding="UTF-8" standalone="no"?>
<!-- Created with Inkscape (http://www.inkscape.org/) -->

<svg
   version="1.1"
   id="svg1"
   width="4000"
   height="4000"
   viewBox="0 0 4000 4000"
   sodipodi:docname="vecteezy_sun-with-cloud-in-flat-icon-weather-app-forecast-summer_20274817.eps"
   xmlns:inkscape="http://www.inkscape.org/namespaces/inkscape"
   xmlns:sodipodi="http://sodipodi.sourceforge.net/DTD/sodipodi-0.dtd"
   xmlns="http://www.w3.org/2000/svg"
   xmlns:svg="http://www.w3.org/2000/svg">
  <defs
     id="defs1" />
  <sodipodi:namedview
     id="namedview1"
     pagecolor="#ffffff"
     bordercolor="#000000"
     borderopacity="0.25"
     inkscape:showpageshadow="2"
     inkscape:pageopacity="0.0"
     inkscape:pagecheckerboard="0"
     inkscape:deskcolor="#d1d1d1">
    <inkscape:page
       x="0"
       y="0"
       inkscape:label="1"
       id="page1"
       width="4000"
       height="4000"
       margin="0"
       bleed="0" />
  </sodipodi:namedview>
  <g
     id="g1"
     inkscape:groupmode="layer"
     inkscape:label="1">
    <g
       id="group-R5">
      <path
         id="path2"
         d="M 0,30000 H 30000 V 0 H 0 v 30000"
         style="fill:#ffffff;fill-opacity:1;fill-rule:nonzero;stroke:none"
         transform="matrix(0.13333333,0,0,-0.13333333,0,4000)" />
      <path
         id="path3"
         d="m 5631.64,28126.3 c 0,0 -899.65,13.6 -1827.62,-449.8 -928,-464 -1923.28,-1583.2 -1923.28,-3301.1 V 5638.7 c 0,-1717.8 998.83,-2837.1 1923.28,-3301 927.97,-464 1827.62,-449.8 1827.62,-449.8 H 24368.4 c 0,0 899.6,-13.6 1827.6,449.8 928,463.9 1923.3,1583.2 1923.3,3301 v 18736.7 c 0,0 13.1,899.7 -449.9,1827.7 -464,928 -1583.2,1923.2 -3301,1923.2 z"
         style="fill:#0095ff;fill-opacity:1;fill-rule:nonzero;stroke:none"
         transform="matrix(0.13333333,0,0,-0.13333333,0,4000)" />
      <path
         id="path4"
         d="M 15017.7,28126.3 V 1880.7 h 9386.1 c 0,0 899.6,-13.6 1827.6,449.9 928,464 1923.2,1583.2 1923.2,3301 v 18736.8 c 0,0 13.2,899.6 -449.8,1827.6 -463.9,928 -1583.2,1923.3 -3301,1923.3 z"
         style="fill:#5a7ae4;fill-opacity:1;fill-rule:nonzero;stroke:none"
         transform="matrix(0.13333333,0,0,-0.13333333,0,4000)" />
      <path
         id="path5"
         d="m 5631.64,15938.6 c -250.16,1 -490.35,-98 -667.23,-274.9 -176.91,-176.9 -275.86,-417.1 -274.92,-667.2 0.94,-249 100.74,-487.4 277.42,-662.7 176.68,-175.4 415.79,-273.3 664.73,-272.4 h 1873.67 c 515.63,1.9 933.13,419.5 935.08,935.1 0.94,248.9 -97.07,488 -272.42,664.7 -175.35,176.7 -413.71,276.5 -662.66,277.4 z"
         style="fill:#ffdf5f;fill-opacity:1;fill-rule:nonzero;stroke:none"
         transform="matrix(0.13333333,0,0,-0.13333333,0,4000)" />
      <path
         id="path6"
         d="m 14061.4,19693.1 c -2613.9,-41.9 -4675.35,-2146.5 -4675.35,-4675.4 21.61,-1434.5 456.92,-2015.4 1583.25,-2149.9 386.1,187.4 797,274.5 1229.1,274.5 899.6,0.1 1746.1,-428.6 2277.4,-1158.2 442.7,-609.3 1384.9,-474.6 1639.9,234.5 307.8,857.1 1055.5,1508.8 1951.6,1753.2 407.3,110.9 690.7,481.7 690.7,903.2 v 142.7 c 0,2645.8 -2171.2,4675.4 -4675.3,4675.4 z"
         style="fill:#ffdf5f;fill-opacity:1;fill-rule:nonzero;stroke:none"
         transform="matrix(0.13333333,0,0,-0.13333333,0,4000)" />
      <path
         id="path7"
         d="m 20011.8,21889 c -240.1,-7.2 -468.2,-106.2 -637.5,-276.6 l -1321.2,-1321.1 c -176.3,-176.1 -275.3,-415 -275.3,-664.2 0,-249.1 99,-488 275.3,-664 365.8,-362.4 955.3,-362.4 1321.2,0 l 1328.2,1328.2 c 362.4,365.8 362.4,955.3 0,1321.1 -182.3,183.4 -432.2,283.5 -690.7,276.6 z"
         style="fill:#ffc901;fill-opacity:1;fill-rule:nonzero;stroke:none"
         transform="matrix(0.13333333,0,0,-0.13333333,0,4000)" />
      <path
         id="path8"
         d="m 8075.55,21889 c -240.08,-7.2 -468.25,-106.2 -637.54,-276.6 -362.38,-365.8 -362.38,-955.3 0,-1321.1 l 1328.24,-1328.2 c 365.82,-362.4 955.31,-362.4 1321.15,0 176.2,176 275.3,414.9 275.3,664 0,249.2 -99.1,488.1 -275.3,664.2 l -1321.15,1321.1 c -182.3,183.4 -432.19,283.5 -690.7,276.6 z"
         style="fill:#ffdf5f;fill-opacity:1;fill-rule:nonzero;stroke:none"
         transform="matrix(0.13333333,0,0,-0.13333333,0,4000)" />
      <path
         id="path9"
         d="m 14061.4,24368.4 c -248.9,-1 -487.3,-100.8 -662.6,-277.5 -175.4,-176.6 -273.4,-415.7 -272.5,-664.7 v -1873.7 c 2,-515.6 419.5,-933.1 935.1,-935 515.6,1.9 933.1,419.4 935.1,935 v 1873.7 c 0.9,249 -97.1,488.1 -272.4,664.7 -175.4,176.7 -413.8,276.5 -662.7,277.5 z"
         style="fill:#ffdf5f;fill-opacity:1;fill-rule:nonzero;stroke:none"
         transform="matrix(0.13333333,0,0,-0.13333333,0,4000)" />
      <path
         id="path10"
         d="m 14061.4,19693.1 v -7296.4 c 145.5,-130.7 283.3,-272.4 400.2,-435.6 442.8,-609.3 1384.9,-474.7 1639.9,234.4 307.8,857.2 1055.5,1508.9 1951.6,1753.2 407.3,110.9 690.7,481.8 690.7,903.3 v 142.7 c 0,2645.8 -2171.2,4675.3 -4675.3,4675.3 z"
         style="fill:#ffc901;fill-opacity:1;fill-rule:nonzero;stroke:none"
         transform="matrix(0.13333333,0,0,-0.13333333,0,4000)" />
      <path
         id="path11"
         d="m 14061.4,24368.4 v -3754.5 c 515.6,2 933.1,419.5 935.1,935.1 v 1873.7 c 0.9,248.9 -97.1,488 -272.4,664.7 -175.4,176.7 -413.8,276.5 -662.7,277.4 z"
         style="fill:#ffc901;fill-opacity:1;fill-rule:nonzero;stroke:none"
         transform="matrix(0.13333333,0,0,-0.13333333,0,4000)" />
      <path
         id="path12"
         d="m 18736.7,15938.6 c -1519.5,-24.8 -2830,-864.2 -3683.6,-2072 -832.3,687.1 -1749.7,1133.4 -2851.2,1133.4 -2578.54,0 -4675.34,-2111 -4675.34,-4675.3 0,-2578.5 2110.98,-4675.4 4675.34,-4675.4 h 10307 c 1540.7,0 2812.2,1271.6 2812.2,2812.3 0,1179.5 -811.1,2270.4 -1873.6,2553.8 v 258.2 c 0,2578.5 -2111,4675.3 -4675.4,4675.3 -10.3,0 -11.2,0 -15,0 z"
         style="fill:#eaf0f2;fill-opacity:1;fill-rule:nonzero;stroke:none"
         transform="matrix(0.13333333,0,0,-0.13333333,0,4000)" />
      <path
         id="path13"
         d="m 18736.7,15938.6 c -669.4,-10.9 -1292.8,-187.4 -1859.5,-474.6 V 5617.5 h 5631.7 c 1540.7,0 2812.2,1271.5 2812.2,2812.3 0,1179.4 -811.1,2270.3 -1873.6,2553.7 v 258.2 c 0,2578.5 -2111,4675.3 -4675.4,4675.3 -10.3,0 -11.2,0 -15,0 z"
         style="fill:#c3cbcd;fill-opacity:1;fill-rule:nonzero;stroke:none"
         transform="matrix(0.13333333,0,0,-0.13333333,0,4000)" />
    </g>
  </g>
</svg>
